<svg width="160" height="55" viewBox="0 0 160 55" fill="none" xmlns="http://www.w3.org/2000/svg">
<path d="M5.48806 34.4885H4.66577V28.6343H1.10745V34.4885H0.285156V27.863H5.48806V34.4885Z" fill="#204173"/>
<path d="M14.429 27.863V28.6343H12.3305V34.4885H11.5082V28.6343H9.40967V27.863H14.429Z" fill="#204173"/>
<path d="M23.7361 34.4885H22.9138V29.1788L19.1274 34.4885H18.3507V27.863H19.173V33.1715L22.9606 27.863H23.7361V34.4885Z" fill="#204173"/>
<path d="M28.2961 27.8629H29.1184V33.717H32.4943V27.8629H33.3154V33.717H34.1366V35.9413H33.3154V34.4883H28.2961V27.8629Z" fill="#204173"/>
<path d="M38.0586 27.863H42.1655V28.6343H38.8809V30.7214H41.4812V31.4939H38.8809V33.7171H42.1655V34.4885H38.0586V27.863Z" fill="#204173"/>
<path d="M50.103 33.0816C51.7453 33.0362 52.6132 32.1742 52.6132 31.0399C52.6132 29.9056 51.7453 29.0424 50.103 28.997V33.0816ZM49.2818 28.997C47.6395 29.0424 46.7716 29.9056 46.7716 31.0399C46.7716 32.1742 47.6395 33.0362 49.2818 33.0816V28.997ZM49.2818 33.8529C47.1377 33.7622 45.9504 32.5825 45.9504 31.0399C45.9504 29.4961 47.1377 28.3164 49.2818 28.2257V27.4997H50.103V28.2257C52.2471 28.3164 53.4343 29.4961 53.4343 31.0399C53.4343 32.5825 52.2471 33.7622 50.103 33.8529V34.58H49.2818V33.8529Z" fill="#204173"/>
<path d="M60.094 28.9063H60.0483L58.6786 31.902H61.4625L60.094 28.9063ZM58.3137 32.6734L57.4925 34.4894H56.6257L59.6822 27.8628H60.4589L63.5166 34.4894H62.6487L61.8275 32.6734H58.3137Z" fill="#204173"/>
<path d="M67.9849 33.7171H69.2622C70.1746 33.7171 70.6764 33.218 70.6764 32.4002C70.6764 31.5847 70.1746 31.0844 69.2622 31.0844H67.9849V33.7171ZM67.9849 30.3131H69.2622C70.7232 30.3131 71.5444 31.1298 71.5444 32.4002C71.5444 33.6718 70.7232 34.4885 69.2622 34.4885H67.1626V27.863H71.1338V28.6343H67.9849V30.3131Z" fill="#204173"/>
<path d="M76.5611 31.448H77.7015C78.6596 31.448 79.2081 30.9036 79.2081 30.0404C79.2081 29.1783 78.6596 28.6338 77.7015 28.6338H76.5611V31.448ZM76.5611 34.488H75.7388V27.8625H77.7015C79.2081 27.8625 80.0749 28.7246 80.0749 30.0404C80.0749 31.3573 79.2081 32.2194 77.7015 32.2194H76.5611V34.488Z" fill="#204173"/>
<path d="M89.655 34.4885H88.8327V29.1788L85.0463 34.4885H84.2697V27.863H85.0919V33.1715L88.8795 27.863H89.655V34.4885Z" fill="#204173"/>
<path d="M95.0369 31.0391L98.2314 27.863H99.2806L96.0861 31.0391L99.5087 34.4885H98.4127L95.0369 31.0844V34.4885H94.2146V27.863H95.0369V31.0391Z" fill="#204173"/>
<path d="M105.712 28.9063H105.667L104.297 31.902H107.081L105.712 28.9063ZM103.932 32.6734L103.111 34.4894H102.244L105.301 27.8628H106.077L109.135 34.4894H108.267L107.446 32.6734H103.932Z" fill="#204173"/>
<path d="M7.56828 52.0627C9.87549 52.0627 11.1677 50.2263 11.1677 50.2263H11.5372V53.3479C11.5372 53.3479 10.0602 54.9995 7.014 54.9995C3.04624 54.9995 0 51.9709 0 48.0235C0 44.0761 3.04624 41.0475 7.014 41.0475C10.5221 41.0475 11.9991 42.791 11.9991 42.791L10.7993 45.3613C10.7993 45.3613 9.78425 43.9843 7.56828 43.9843C5.07631 43.9843 3.41576 45.6369 3.41576 48.0235C3.41576 50.4101 5.07631 52.0627 7.56828 52.0627Z" fill="#204173"/>
<path d="M15.2294 41.3225H24.5517V44.2592H18.5528V46.555H23.1672V49.4917H18.5528V51.7864H24.5517V54.7242H15.2294V41.3225Z" fill="#204173"/>
<path d="M31.475 51.9711H33.1367C34.2441 51.9711 34.8896 51.5117 34.8896 50.5941C34.8896 49.6764 34.2441 49.2171 33.1367 49.2171H31.475V51.9711ZM31.475 44.0764V46.463H32.7672C33.6898 46.463 34.2441 46.0047 34.2441 45.2697C34.2441 44.5347 33.6898 44.0764 32.7672 44.0764H31.475ZM32.6748 41.3223C36.1818 41.3223 37.6587 42.7912 37.6587 44.9022C37.6587 47.1061 35.6287 47.5644 35.6287 47.5644V47.6563C35.6287 47.6563 38.3054 48.2075 38.3054 50.9605C38.3054 53.1644 36.7361 54.7252 33.1367 54.7252H28.1516V41.3223H32.6748Z" fill="#204173"/>
<path d="M41.5355 41.3225H50.8579V44.2592H44.8589V46.555H49.4733V49.4917H44.8589V51.7864H50.8579V54.7242H41.5355V41.3225Z" fill="#204173"/>
<path d="M57.7805 48.1156H58.8879C60.1801 48.1156 61.0104 47.3818 61.0104 46.1885C61.0104 44.994 60.1801 44.2602 58.8879 44.2602H57.7805V48.1156ZM57.7805 54.7252H54.4572V41.3223H58.8879C62.395 41.3223 64.4262 43.3425 64.4262 46.1885C64.4262 49.0333 62.395 51.0524 58.8879 51.0524H57.7805V54.7252Z" fill="#204173"/>
<path d="M79.6551 54.7247H76.3329V49.4559H71.1642V54.7247H67.8408V41.323H71.1642V46.5181H76.3329V41.323H79.6551V54.7247Z" fill="#204173"/>
<path d="M89.44 45.7286L87.7783 49.4003H91.1941L89.5324 45.7286H89.44ZM86.5785 52.1544L85.4711 54.7247H81.9641L88.1478 41.323H90.8246L97.0083 54.7247H93.5013L92.3939 52.1544H86.5785Z" fill="#204173"/>
<path d="M105.685 44.2597H104.578C103.193 44.2597 102.455 44.9017 102.455 46.0961C102.455 47.2894 103.193 47.9314 104.578 47.9314H105.685V44.2597ZM101.348 49.8597V49.7678C101.348 49.7678 99.0394 48.7583 99.0394 46.0042C99.0394 43.342 101.071 41.323 104.578 41.323H109.008V54.7247H105.685V50.6855H104.485L101.808 54.7247H98.1167L101.348 49.8597Z" fill="#204173"/>
<path d="M135.059 11.8368C135.059 12.5525 134.476 13.1321 133.756 13.1321C133.037 13.1321 132.454 12.5525 132.454 11.8368C132.454 11.121 133.037 10.5414 133.756 10.5414C134.476 10.5414 135.059 11.121 135.059 11.8368Z" fill="#204173"/>
<path d="M146.53 34.3024C146.53 36.3532 145.126 38.0774 143.222 38.5753L141.155 29.9853C141.458 29.9206 141.769 29.8866 142.09 29.8866C144.543 29.8866 146.53 31.8625 146.53 34.3024Z" fill="#204173"/>
<path d="M117.81 27.914C117.81 26.8705 117.995 25.5932 117.995 25.5932C117.995 25.5932 119.449 26.8058 121.851 27.2278C121.938 32.6327 124.055 37.4365 127.537 41.0821C121.9 39.3274 117.81 34.0948 117.81 27.914ZM153.365 43.902C153.346 43.7171 153.34 43.5277 153.34 43.3382C153.34 43.1046 153.351 42.8743 153.376 42.6486C153.514 41.3044 154.06 40.0794 154.889 39.0982C154.973 38.9984 155.488 38.4687 155.673 38.3133C158.346 35.6568 160 31.985 160 27.9288C160 19.8185 153.39 13.2441 145.236 13.2441C142.455 13.2441 139.851 14.0098 137.629 15.3414L139.492 23.0785C140.617 22.6123 141.854 22.3537 143.15 22.3537C148.413 22.3537 152.676 26.596 152.676 31.8274C152.676 36.8172 148.797 40.9063 143.872 41.2738L144.186 42.576L144.924 45.642L144.932 45.6783C144.955 45.7588 144.971 45.8428 144.979 45.9347C144.388 45.9902 143.788 46.0209 143.181 46.0209C132.767 46.0209 124.316 37.6724 124.221 27.3401C124.443 27.3287 124.664 27.3185 124.882 27.2811C128.236 26.7037 131.523 24.0222 132.235 20.4367C132.237 20.431 132.237 20.4265 132.237 20.4208C132.4 19.7652 132.485 19.0801 132.485 18.3757C132.485 17.3741 132.316 16.4099 131.991 15.5195C131.7 14.7176 131.134 13.5753 130.47 12.8652V9.3024H139.57C142.191 9.3024 144.4 7.16992 144.352 4.56443C144.306 2.03607 142.229 0 139.676 0C137.223 0 135.215 1.87613 135.016 4.2627C134.176 3.25204 132.864 2.64519 131.418 2.77337C129.425 2.95145 127.814 4.56102 127.647 6.54491C127.559 7.57599 127.852 8.53448 128.398 9.3024H123.431L129.159 13.4982L126.482 15.8485C126.439 15.8825 126.398 15.9211 126.358 15.9596L126.309 15.9993V16.0016C125.84 16.4542 125.548 17.0894 125.548 17.7926C125.548 19.1754 126.675 20.2949 128.064 20.2949C128.426 20.2949 128.768 20.2167 129.078 20.0805C128.978 22.7212 126.933 24.8696 124.325 25.1429C124.157 25.1622 123.986 25.1724 123.812 25.1735H123.759C123.098 25.1735 122.47 25.0556 121.886 24.8355C119.871 24.0835 118.437 22.1472 118.437 19.8798C118.437 19.5395 118.47 19.206 118.533 18.8827C117.637 20.0363 116.908 21.3305 116.387 22.7212C116.345 22.8278 116.308 22.9356 116.269 23.0445C115.734 24.569 115.443 26.2069 115.443 27.914C115.443 35.7634 121.581 42.1835 129.344 42.6917L129.347 42.6928C131.045 44.1118 132.976 45.2632 135.071 46.0901L133.054 52.2697C132.889 52.6021 132.61 52.838 132.301 52.8913L128.099 53.6581C127.774 53.7148 127.537 53.9961 127.537 54.324V55H138.696L138.567 54.1686C138.527 53.9156 138.348 53.7069 138.104 53.6286L136.003 52.9549C135.717 52.863 135.525 52.5941 135.532 52.2958L137.121 46.7774C138.757 47.2334 140.474 47.4989 142.246 47.542C142.406 47.5454 142.564 47.5476 142.724 47.5476H142.76C143.002 47.5488 143.239 47.5442 143.47 47.5363L143.94 52.2074C143.952 52.6123 143.686 52.9741 143.295 53.0876L141.023 53.632C140.515 53.7795 140.344 54.3251 140.344 55H151.502C151.502 54.3727 151.535 53.7523 150.99 53.6672L147.059 53.0796C146.37 52.9719 146.036 52.5987 145.98 51.9068L145.566 47.4853C146.183 48.4176 147.245 49.0336 148.453 49.0336C148.97 49.0336 149.458 48.9213 149.9 48.7205C150.822 49.4113 151.97 49.8208 153.216 49.8208C154.376 49.8208 155.452 49.4669 156.339 48.8578C154.68 47.7768 153.539 45.9766 153.365 43.902Z" fill="#204173"/>
<path d="M119.812 15.1641C120.059 14.4461 120.616 13.947 121.199 13.947H121.208L120.733 15.1755L119.812 15.1641ZM118.797 12.1605H118.008L117.969 12.2932C117.897 12.5428 117.707 12.739 117.459 12.8207L117.332 12.8615V13.2812C117.332 13.4003 117.262 13.5035 117.16 13.5511L116.827 12.41H116.689C116.523 12.41 116.388 12.2751 116.388 12.1094V12.0119L116.055 11.7873L115.306 11.7555L114.465 12.5915L113.636 11.4969H114.572V11.3132C114.572 11.008 114.322 10.7585 114.015 10.7585L113.184 11.1487L112.959 11.1385V10.6712C112.959 10.3025 112.658 10.0019 112.286 10.0019H112.152L111.981 9.65596L112.231 9.48354L112.589 9.59243L112.761 9.10922L112.23 8.9198C112.293 8.45246 112.695 8.09062 113.182 8.09062C113.487 8.09062 113.766 8.229 113.949 8.46948L114.068 8.62601L114.959 7.86263L115.777 8.14847L116.442 8.04525L116.476 7.9443C116.597 7.58926 116.901 7.33404 117.263 7.26825V7.88645L118.92 7.56657L119.725 8.15868L118.953 8.40482L119.631 9.07973V8.81884C119.94 8.89144 120.178 9.14666 120.226 9.46313L120.211 9.57996V9.7864H119.813V10.366L120.508 11.0001C120.476 11.5332 120.126 12.0006 119.613 12.1786L119.328 12.2785L120.084 12.9942C120.057 13.1031 119.97 13.1893 119.86 13.2154L119.4 12.7628L118.797 12.1605ZM114.29 16.0058C114.29 16.2791 114.066 16.5026 113.79 16.5026V16.0058C113.79 15.7313 114.015 15.509 114.29 15.509V16.0058ZM113.338 16.1249H112.938L112.385 15.5747V13.8075H111.482C110.804 13.8075 110.253 13.2596 110.253 12.5859V12.1378C110.253 11.9824 110.381 11.8554 110.539 11.8554H112.902L114.008 13.4649V14.8431L113.338 15.5078V16.1249ZM111.298 10.3683H111.88C111.811 10.6541 111.584 10.8787 111.298 10.9468V10.3683ZM115.982 5.55546C112.343 5.55546 109.391 8.48989 109.391 12.1106C109.391 15.7313 112.343 18.6657 115.982 18.6657C119.623 18.6657 122.574 15.7313 122.574 12.1106C122.574 8.48989 119.623 5.55546 115.982 5.55546Z" fill="#204173"/>
</svg>
